<svg width="27" height="33" viewBox="0 0 27 33" fill="none" xmlns="http://www.w3.org/2000/svg">
<g clip-path="url(#clip0_5_1909)">
<path d="M13.8621 19.8642C17.3549 19.8642 20.1954 17.0237 20.1954 13.5308C20.1954 10.038 17.3549 7.19751 13.8621 7.19751C10.3692 7.19751 7.52872 10.038 7.52872 13.5308C7.52872 17.0237 10.3692 19.8642 13.8621 19.8642ZM13.8621 10.3642C15.6085 10.3642 17.0287 11.7844 17.0287 13.5308C17.0287 15.2773 15.6085 16.6975 13.8621 16.6975C12.1156 16.6975 10.6954 15.2773 10.6954 13.5308C10.6954 11.7844 12.1156 10.3642 13.8621 10.3642Z" fill="#EF2779"/>
<path d="M12.6109 32.2363C12.8788 32.4277 13.1999 32.5305 13.5292 32.5305C13.8585 32.5305 14.1796 32.4277 14.4475 32.2363C14.9289 31.8959 26.2418 23.7275 26.1959 13.5308C26.1959 6.54672 20.5133 0.864136 13.5292 0.864136C6.54512 0.864136 0.862536 6.54672 0.862536 13.5229C0.816619 23.7275 12.1295 31.8959 12.6109 32.2363ZM13.5292 4.0308C18.7685 4.0308 23.0292 8.29155 23.0292 13.5387C23.0625 20.5656 16.0815 26.8751 13.5292 28.9446C10.9785 26.8736 3.99595 20.5624 4.0292 13.5308C4.0292 8.29155 8.28995 4.0308 13.5292 4.0308Z" fill="#EF2779"/>
</g>
<defs>
<clipPath id="clip0_5_1909">
<rect width="26" height="32" fill="white" transform="translate(0.862213 0.69751)"/>
</clipPath>
</defs>
</svg>
